# xmcd
#
# Track frame offsets: 
#        150
#        21616
#        47342
#        92712
#        126282
#        163279
#        201045
#        229131
#        251985
#        283010
#
# Disc length: 3788 seconds
#
# Revision: 0
# Processed by: cddbd v1.5.2PL0 Copyright (c) Steve Scherf et al.
# Submitted via: ExactAudioCopy v0.99pb4
#
DISCID=920eca0a
DTITLE=Johnny Winter - 07 May 1983, The Tripping Field, New Paltz Coll
DTITLE=ege, New Paltz, NY
DYEAR=1983
DGENRE=Blues
TTITLE0=(cuts in) Opening Jam
TTITLE1=Messin' With The Kid
TTITLE2=Mother Earth
TTITLE3=Rock and Roll Hootchie Coo
TTITLE4=Somethin' Goin' Wrong
TTITLE5=Highway 61
TTITLE6=Jumpin' Jack Flash
TTITLE7=Johnny B. Goode
TTITLE8=I Used To Love Her
TTITLE9=Kiloh Sez
EXTD=
EXTT0=
EXTT1=
EXTT2=
EXTT3=
EXTT4=
EXTT5=
EXTT6=
EXTT7=
EXTT8=
EXTT9=
PLAYORDER=
